<svg xmlns="http://www.w3.org/2000/svg" width="805" height="600"><rect width="805" height="600" x="0" y="0" fill="#FFFFFF" id="backgorund"/><g transform="translate(402.5,300)" id="viz"><path fill="rgb(94, 79, 162)" display="" d="M0.999992072947904,-191.3307201165001A191.33333333333334,191.33333333333334,0,0,1,175.11620940457317,77.08928361463819L88.67153813586813,38.49419136783795A96.66666666666667,96.66666666666667,0,0,0,0.9999920729479188,-96.66149419649216Z"><title>Modern orchestra</title></path><path fill="rgb(253, 190, 112)" display="" d="M174.3008486381483,78.91551563834429A191.33333333333334,191.33333333333334,0,0,1,-85.1728791739591,171.33016400407317L-42.58797502046201,86.77965676413424A96.66666666666667,96.66666666666667,0,0,0,87.85617736944326,40.32042339154403Z"><title>Early Romantic orchestra</title></path><path fill="rgb(190, 229, 160)" display="" d="M-86.95909504679422,170.43051438368383A191.33333333333334,191.33333333333334,0,0,1,-130.66410569067185,-139.76886609149187L-66.375540153724,-70.27611339385395A96.66666666666667,96.66666666666667,0,0,0,-44.37419089329709,85.88000714374489Z"><title>Late Romantic orchestra</title></path><path fill="rgb(158, 1, 66)" display="" d="M-129.1960002709933,-141.12702773892022A191.33333333333334,191.33333333333334,0,0,1,-0.999992072947885,-191.3307201165001L-0.9999920729478876,-96.66149419649216A96.66666666666667,96.66666666666667,0,0,0,-64.90743473404547,-71.63427504128225Z"><title>Classical orchestra</title></path><path fill="rgb(94, 79, 162)" display="" d="M0.9999920729479248,-287.99826391118063A288,288,0,0,1,16.906689962838374,-287.5033283885605L11.021244769265921,-193.01893674329912A193.33333333333334,193.33333333333334,0,0,0,0.9999920729479279,-193.33074715014118Z"><title>Baritone horn</title></path><path fill="rgb(94, 79, 162)" display="" d="M18.9028053336696,-287.3789900993414A288,288,0,0,1,34.747963299573485,-285.89609834086843L22.999842556533654,-191.96037356744347A193.33333333333334,193.33333333333334,0,0,0,13.017360140097168,-192.89459845408007Z"><title>Bass Drum</title></path><path fill="rgb(94, 79, 162)" display="" d="M36.732487312750095,-285.64790280311644A288,288,0,0,1,52.45480351669174,-283.1827918289267L34.88945842106495,-190.15915299785746A193.33333333333334,193.33333333333334,0,0,0,24.984366569710286,-191.7121780296915Z"><title>Bassoons</title></path><path fill="rgb(94, 79, 162)" display="" d="M54.42005843433467,-282.81169926296116A288,288,0,0,1,69.95870628925107,-279.37390610852384L46.64409374884211,-187.62224360700682A193.33333333333334,193.33333333333334,0,0,0,36.854713338707896,-189.7880604318919Z"><title>Celesta</title></path><path fill="rgb(94, 79, 162)" display="" d="M71.8970889218685,-278.8813521993913A288,288,0,0,1,87.19195241785854,-274.4841770185704L58.218272139322,-184.35946020448645A193.33333333333334,193.33333333333334,0,0,0,48.58247638145955,-187.12968969787426Z"><title>Cellos</title></path><path fill="rgb(94, 79, 162)" display="" d="M89.09596353960902,-273.8720673616582A288,288,0,0,1,104.08786982109676,-268.53252197100153L69.56721534479487,-180.383425865429A193.33333333333334,193.33333333333334,0,0,0,60.12228326107248,-183.74735054757429Z"><title>Clarinets</title></path><path fill="rgb(94, 79, 162)" display="" d="M105.9501431828371,-267.8032246996595A288,288,0,0,1,120.58109147685502,-261.54196676298494L80.64701650872613,-175.7095230942792A193.33333333333334,193.33333333333334,0,0,0,71.42948870653524,-179.65412859408698Z"><title>Cymbals</title></path><path fill="rgb(94, 79, 162)" display="" d="M122.39442230472729,-260.69830338667737A288,288,0,0,1,136.60780831463896,-253.53955649458499L91.41481003285426,-170.35583431287273A193.33333333333334,193.33333333333334,0,0,0,82.4603473365984,-174.86585971797163Z"><title>Double basses</title></path><path fill="rgb(94, 79, 162)" display="" d="M138.36518118394076,-252.58479098301868A288,288,0,0,1,152.10601608046846,-244.55625093652435L101.82893741586346,-164.34307190305876A193.33333333333334,193.33333333333334,0,0,0,93.1721829021561,-169.40106880130642Z"><title>Flutes</title></path><path fill="rgb(94, 79, 162)" display="" d="M153.80063205696842,-243.49407709198394A288,288,0,0,1,167.01575521929075,-234.62680475284566L111.84910842203209,-157.69449807451844A193.33333333333334,193.33333333333334,0,0,0,103.52355339236341,-163.28089805851835Z"><title>French Horns</title></path><path fill="rgb(94, 79, 162)" display="" d="M168.641058162984,-233.46133191959015A288,288,0,0,1,181.27934284685082,-223.78963304186794L121.43655695632769,-150.4358348677946A193.33333333333334,193.33333333333334,0,0,0,113.47441136572533,-156.52902524126293Z"><title>Glockenspiel</title></path><path fill="rgb(94, 79, 162)" display="" d="M182.8290447763913,-222.52537020787608A288,288,0,0,1,194.84159591356473,-212.0866627156341L130.55419104289783,-142.59516464071396A193.33333333333334,193.33333333333334,0,0,0,122.98625888586815,-149.17157203380273Z"><title>Harps</title></path><path fill="rgb(94, 79, 162)" display="" d="M196.30970133324328,-210.72850106820584A288,288,0,0,1,207.6500446970182,-199.56317029283323L139.16673632671862,-134.2028214232002A193.33333333333334,193.33333333333334,0,0,0,132.02229646257632,-141.2370029932857Z"><title>Marimba</title></path><path fill="rgb(94, 79, 162)" display="" d="M209.03087379217072,-198.11636429553616A288,288,0,0,1,219.65513579712922,-186.26760673274543L147.24087254322197,-125.29127356080487A193.33333333333334,193.33333333333334,0,0,0,140.54756542187116,-132.75601542590314Z"><title>Oboes</title></path><path fill="rgb(94, 79, 162)" display="" d="M220.94334640823647,-184.7377537969162A288,288,0,0,1,230.81042384862693,-172.25140998789294L154.74536242792598,-115.8949981009863A193.33333333333334,193.33333333333334,0,0,0,148.5290831543292,-123.76142062497566Z"><title>Piano</title></path><path fill="rgb(94, 79, 162)" display="" d="M232.0010321390915,-170.64442881734004A288,288,0,0,1,241.07275120914645,-157.5688060005945L161.65117256734285,-106.05034740811048A193.33333333333334,193.33333333333334,0,0,0,155.93597071839054,-114.2880169304334Z"><title>Pipe organ</title></path><path fill="rgb(94, 79, 162)" display="" d="M242.1611509467887,-155.89091369328304A288,288,0,0,1,250.40241492776343,-142.27659891332866L167.9315857236155,-95.79540852321551A193.33333333333334,193.33333333333334,0,0,0,162.73957230498507,-104.37245510079904Z"><title>Snare Drum</title></path><path fill="rgb(94, 79, 162)" display="" d="M251.38439530543877,-140.5342869086363A288,288,0,0,1,258.7633203479981,-126.43395130454206L173.5623041983206,-85.16985581264892A193.33333333333334,193.33333333333334,0,0,0,168.91356610129085,-94.05309651852315Z"><title>Tam-tam</title></path><path fill="rgb(94, 79, 162)" display="" d="M259.6350822743919,-124.63396026914081A288,288,0,0,1,266.12312075102915,-110.10215530012644L178.52154383554327,-74.21479747565164A193.33333333333334,193.33333333333334,0,0,0,174.43406612471435,-83.36986477724768Z"><title>Tambourine</title></path><path fill="rgb(94, 79, 162)" display="" d="M266.88129154860286,-108.2514490496531A288,288,0,0,1,272.45334249886497,-93.34439544609083L182.79011830054463,-62.97261650472114A193.33333333333334,193.33333333333334,0,0,0,179.27971463311695,-72.36409122517831Z"><title>Tenor drum</title></path><path fill="rgb(94, 79, 162)" display="" d="M273.09498895209055,-91.45013400349698A288,288,0,0,1,277.7294951933176,-76.22550425982755L186.35151330796364,-51.48680671404703A193.33333333333334,193.33333333333334,0,0,0,183.43176475377018,-61.0783550621273Z"><title>Timpani</title></path><path fill="rgb(94, 79, 162)" display="" d="M278.2521348967183,-74.29501615464176A288,288,0,0,1,281.93116642459546,-58.81171140569743L189.1919505123787,-39.80180447039346A193.33333333333334,193.33333333333334,0,0,0,186.87415301136434,-49.55631860886124Z"><title>Triangle</title></path><path fill="rgb(94, 79, 162)" display="" d="M282.3327773866907,-56.85246532136816A288,288,0,0,1,285.04210074295173,-41.17038746532451L191.30044081404972,-27.962816777428607A193.33333333333334,193.33333333333334,0,0,0,189.59356147447386,-37.84255838606419Z"><title>Trombones</title></path><path fill="rgb(94, 79, 162)" display="" d="M285.3211292089489,-39.189963344334785A288,288,0,0,1,287.0502625478611,-23.36978329390366L192.66882687361002,-16.015646378609688A193.33333333333334,193.33333333333334,0,0,0,191.57946928004685,-25.982392656438893Z"><title>Trumpets</title></path><path fill="rgb(94, 79, 162)" display="" d="M287.2056290108313,-21.37584301244619A288,288,0,0,1,287.9478826514203,-5.478765970900812L193.29181467122766,-4.006514555266518A193.33333333333334,193.33333333333334,0,0,0,192.8241933365802,-14.021706097152208Z"><title>Tubas</title></path><path fill="rgb(94, 79, 162)" display="" d="M287.9789860287009,-3.4790236965673613A288,288,0,0,1,287.7314883358268,12.433447633298993L193.16699398813975,8.018117694556656A193.33333333333334,193.33333333333334,0,0,0,193.3229180485083,-2.0067722809330673Z"><title>Tubular bells</title></path><path fill="rgb(94, 79, 162)" display="" d="M287.6382082944935,14.43125528613333A288,288,0,0,1,286.40191678864926,30.29755864401648L192.2948477313206,20.01172940467677A193.33333333333334,193.33333333333334,0,0,0,193.07371394680652,10.015925347390995Z"><title>Vibraphone</title></path><path fill="rgb(94, 79, 162)" display="" d="M286.1846142110608,32.28570254565137A288,288,0,0,1,283.96431186391175,48.04445428616181L190.67875006520845,31.927919621352608A193.33333333333334,193.33333333333334,0,0,0,192.07754515373216,21.999873306311663Z"><title>Violas</title></path><path fill="rgb(94, 79, 162)" display="" d="M283.623827451526,50.01524269407295A288,288,0,0,1,280.42810418152123,65.60547526813504L188.3249533577187,43.72058691956062A193.33333333333334,193.33333333333334,0,0,0,190.3382656528227,33.89870802926375Z"><title>Violins 1</title></path><path fill="rgb(94, 79, 162)" display="" d="M279.9657552023848,67.55128358483175A288,288,0,0,1,275.8069746420319,82.9126814112871L185.2425639910472,55.34410776045235A193.33333333333334,193.33333333333334,0,0,0,187.86260437858226,45.66639523625732Z"><title>Violins 2</title></path><path fill="rgb(94, 79, 162)" display="" d="M275.22454983452576,84.8259816823988A288,288,0,0,1,270.11880149789806,99.89911449727242L181.44350713084646,66.75351299996312A193.33333333333334,193.33333333333334,0,0,0,184.6601391835411,57.25740803156403Z"><title>Wood block</title></path><path fill="rgb(94, 79, 162)" display="" d="M269.4185541504565,101.77250453574162A288,288,0,0,1,263.3855911859891,116.49905731638792L176.9424805900765,77.90466186569434A193.33333333333334,193.33333333333334,0,0,0,180.7432597834049,68.62690303843232Z"><title>Xylophone</title></path><path fill="rgb(253, 190, 112)" display="" d="M262.5702304195643,118.32528934009366A288,288,0,0,1,255.63339318896004,132.64828791469026L171.756897966022,88.75441272898657A193.33333333333334,193.33333333333334,0,0,0,176.12711982365175,79.73089388940019Z"><title>Bass Clarinet</title></path><path fill="rgb(253, 190, 112)" display="" d="M254.70607347595933,134.4202965867105A288,288,0,0,1,246.8921992548634,148.284328056261L165.9068212704665,99.26079001150083A193.33333333333334,193.33333333333334,0,0,0,170.82957825302128,90.52642140100679Z"><title>Bass Drum</title></path><path fill="rgb(253, 190, 112)" display="" d="M245.85650821510865,149.99525781928645A288,288,0,0,1,237.19582736490315,163.3466849393616L159.41488331366736,109.38314658057521A193.33333333333334,193.33333333333334,0,0,0,164.87113023071177,100.97171977452628Z"><title>Bassoons</title></path><path fill="rgb(253, 190, 112)" display="" d="M236.0557718858264,164.98991653851667A288,288,0,0,1,226.58179089823466,177.7770852313331L152.3062001424088,119.08232100508573A193.33333333333334,193.33333333333334,0,0,0,158.2748278345906,111.02637817973026Z"><title>Cellos</title></path><path fill="rgb(253, 190, 112)" display="" d="M225.34178163300905,179.3462613227866A288,288,0,0,1,215.09115349998842,191.5197005167991L144.60827387089665,128.3207890634153A193.33333333333334,193.33333333333334,0,0,0,151.06619087718326,120.65149709653922Z"><title>Clarinets</title></path><path fill="rgb(253, 190, 112)" display="" d="M213.75598780356805,193.00875026309265A288,288,0,0,1,202.76837021400445,204.52136328695946L136.35088628042084,137.06280891737748A193.33333333333334,193.33333333333334,0,0,0,143.2731081744763,129.80983880970882Z"><title>Contrabassoon</title></path><path fill="rgb(253, 190, 112)" display="" d="M201.34321358308983,205.92452584389815A288,288,0,0,1,189.66111549490373,216.7317726343528L127.5659835994294,145.27455939044486A193.33333333333334,193.33333333333334,0,0,0,134.92572964950625,138.46597147431615Z"><title>Cornet</title></path><path fill="rgb(253, 190, 112)" display="" d="M188.1514815836387,218.0436194385923A288,288,0,0,1,175.8200987648849,228.10368885729602L118.28755290977678,152.92427081531088A193.33333333333334,193.33333333333334,0,0,0,126.05634968816442,146.58640619468434Z"><title>Cymbals</title></path><path fill="rgb(253, 190, 112)" display="" d="M174.23182805359988,229.3191446283995A288,288,0,0,1,161.29886822882108,238.59311622111275L108.5514906573066,159.98234794456062A193.33333333333334,193.33333333333334,0,0,0,116.69928219849177,154.13972658641433Z"><title>Double basses</title></path><path fill="rgb(253, 190, 112)" display="" d="M159.6381054283491,239.70747859682498A288,288,0,0,1,146.1536037066576,248.1594731690839L98.39546377547623,166.42148444893382A193.33333333333334,193.33333333333334,0,0,0,106.89072785683462,161.09671032027285Z"><title>English Horn</title></path><path fill="rgb(253, 190, 112)" display="" d="M144.42677398564194,249.16843089785732A288,288,0,0,1,130.44289928460282,256.7657493246071L87.85876395930867,172.21676856020807A193.33333333333334,193.33333333333334,0,0,0,96.66863405446057,167.43044217770725Z"><title>Flutes</title></path><path fill="rgb(253, 190, 112)" display="" d="M128.65668341176774,257.6653989449964A288,288,0,0,1,114.2275366259912,264.37864867715365L76.98215565345762,177.3457794499903A193.33333333333334,193.33333333333334,0,0,0,86.07254808647359,173.1164181805974Z"><title>French Horns</title></path><path fill="rgb(253, 190, 112)" display="" d="M112.3888451235456,265.16550961955005A288,288,0,0,1,97.57024981883606,270.96871839806516L65.8077183424903,181.78867397154653A193.33333333333334,193.33333333333334,0,0,0,75.143464151012,178.1326403923867Z"><title>Glockenspiel</title></path><path fill="rgb(253, 190, 112)" display="" d="M95.68619622700544,271.6397464503437A288,288,0,0,1,80.53548266982997,276.51046278782565L54.378683753536336,185.52826342908153A193.33333333333334,193.33333333333334,0,0,0,63.92366475065967,182.45970202382512Z"><title>Harps</title></path><path fill="rgb(253, 190, 112)" display="" d="M78.61335602595135,277.06306187281086A288,288,0,0,1,63.18913938377611,280.9824419139703L42.73926860113394,188.55008007746352A193.33333333333334,193.33333333333334,0,0,0,52.45655710965769,186.08086251406672Z"><title>Oboes</title></path><path fill="rgb(253, 190, 112)" display="" d="M61.2363760224285,281.4144741331543A288,288,0,0,1,45.59832959302289,284.367354558019L30.934503521351324,190.84243309511982A193.33333333333334,193.33333333333334,0,0,0,40.786505239786315,188.98211229664744Z"><title>Piccolo</title></path><path fill="rgb(253, 190, 112)" display="" d="M43.6224843762935,284.67714846267523A288,288,0,0,1,27.831108723333564,286.65210515052905L19.010058857003635,192.39645381355405A193.33333333333334,193.33333333333334,0,0,0,28.95865830462192,191.1522269997761Z"><title>Snare Drum</title></path><path fill="rgb(253, 190, 112)" display="" d="M25.839825812524023,286.83846220822346A288,288,0,0,1,9.956214700664916,287.8278544353104L7.012067967968888,193.20613002850183A193.33333333333334,193.33333333333334,0,0,0,17.018775946194076,192.5828108712484Z"><title>Tambourine</title></path><path fill="rgb(253, 190, 112)" display="" d="M7.957197982516213,287.8900536667897A288,288,0,0,1,-7.957197982514771,287.8900536667897L-5.013051249819201,193.2683292599811A193.33333333333334,193.33333333333334,0,0,0,5.013051249820169,193.26832925998107Z"><title>Timpani</title></path><path fill="rgb(253, 190, 112)" display="" d="M-9.956214700663471,287.8278544353105A288,288,0,0,1,-25.839825812522587,286.8384622082236L-17.01877594619311,192.58281087124848A193.33333333333334,193.33333333333334,0,0,0,-7.012067967967921,193.2061300285019Z"><title>Triangle</title></path><path fill="rgb(253, 190, 112)" display="" d="M-27.83110872333213,286.6521051505292A288,288,0,0,1,-43.62248437629207,284.67714846267546L-28.958658304620958,191.15222699977625A193.33333333333334,193.33333333333334,0,0,0,-19.010058857002672,192.39645381355413Z"><title>Trombones</title></path><path fill="rgb(253, 190, 112)" display="" d="M-45.59832959302147,284.3673545580192A288,288,0,0,1,-61.23637602242709,281.41447413315456L-40.78650523978537,188.98211229664764A193.33333333333334,193.33333333333334,0,0,0,-30.934503521350372,190.84243309511996Z"><title>Trumpets</title></path><path fill="rgb(253, 190, 112)" display="" d="M-63.1891393837747,280.98244191397066A288,288,0,0,1,-78.61335602594995,277.06306187281126L-52.45655710965675,186.08086251406698A193.33333333333334,193.33333333333334,0,0,0,-42.739268601133006,188.55008007746375Z"><title>Tubas</title></path><path fill="rgb(253, 190, 112)" display="" d="M-80.53548266982858,276.5104627878261A288,288,0,0,1,-95.68619622700409,271.63974645034415L-63.92366475065876,182.45970202382543A193.33333333333334,193.33333333333334,0,0,0,-54.37868375353541,185.5282634290818Z"><title>Violas</title></path><path fill="rgb(253, 190, 112)" display="" d="M-97.57024981883471,270.9687183980656A288,288,0,0,1,-112.38884512354427,265.16550961955056L-75.14346415101112,178.13264039238706A193.33333333333334,193.33333333333334,0,0,0,-65.80771834248941,181.7886739715469Z"><title>Violins 1</title></path><path fill="rgb(253, 190, 112)" display="" d="M-114.22753662598988,264.3786486771542A288,288,0,0,1,-128.65668341176647,257.6653989449971L-86.07254808647272,173.11641818059783A193.33333333333334,193.33333333333334,0,0,0,-76.98215565345673,177.3457794499907Z"><title>Violins 2</title></path><path fill="rgb(190, 229, 160)" display="" d="M-130.44289928460233,256.7657493246073A288,288,0,0,1,-144.4267739856415,249.16843089785758L-96.66863405446024,167.43044217770742A193.33333333333334,193.33333333333334,0,0,0,-87.85876395930835,172.2167685602082Z"><title>Bass Clarinet</title></path><path fill="rgb(190, 229, 160)" display="" d="M-146.15360370665718,248.15947316908418A288,288,0,0,1,-159.6381054283486,239.70747859682527L-106.89072785683429,161.09671032027305A193.33333333333334,193.33333333333334,0,0,0,-98.39546377547593,166.421484448934Z"><title>Bass Drum</title></path><path fill="rgb(190, 229, 160)" display="" d="M-161.29886822882062,238.59311622111304A288,288,0,0,1,-174.23182805359943,229.31914462839984L-116.69928219849145,154.13972658641455A193.33333333333334,193.33333333333334,0,0,0,-108.55149065730632,159.98234794456081Z"><title>Bassoons</title></path><path fill="rgb(190, 229, 160)" display="" d="M-175.82009876488448,228.10368885729636A288,288,0,0,1,-188.1514815836383,218.04361943859266L-126.05634968816413,146.5864061946846A193.33333333333334,193.33333333333334,0,0,0,-118.2875529097765,152.92427081531108Z"><title>Celesta</title></path><path fill="rgb(190, 229, 160)" display="" d="M-189.6611154949033,216.73177263435318A288,288,0,0,1,-201.34321358308944,205.92452584389852L-134.92572964950597,138.46597147431643A193.33333333333334,193.33333333333334,0,0,0,-127.56598359942915,145.2745593904451Z"><title>Cellos</title></path><path fill="rgb(190, 229, 160)" display="" d="M-202.76837021400402,204.52136328695983A288,288,0,0,1,-213.75598780356768,193.00875026309308L-143.27310817447605,129.80983880970913A193.33333333333334,193.33333333333334,0,0,0,-136.35088628042058,137.0628089173777Z"><title>Chimes</title></path><path fill="rgb(190, 229, 160)" display="" d="M-215.09115349998805,191.51970051679953A288,288,0,0,1,-225.3417816330088,179.34626132278692L-151.06619087718306,120.65149709653946A193.33333333333334,193.33333333333334,0,0,0,-144.60827387089645,128.32078906341556Z"><title>Clarinets</title></path><path fill="rgb(190, 229, 160)" display="" d="M-226.58179089823437,177.77708523133342A288,288,0,0,1,-236.05577188582623,164.9899165385169L-158.2748278345905,111.02637817973043A193.33333333333334,193.33333333333334,0,0,0,-152.30620014240867,119.08232100508594Z"><title>Contrabassoon</title></path><path fill="rgb(190, 229, 160)" display="" d="M-237.19582736490298,163.34668493936184A288,288,0,0,1,-245.85650821510856,149.9952578192866L-164.8711302307117,100.97171977452638A193.33333333333334,193.33333333333334,0,0,0,-159.41488331366727,109.38314658057537Z"><title>Cymbals</title></path><path fill="rgb(190, 229, 160)" display="" d="M-246.8921992548633,148.28432805626113A288,288,0,0,1,-254.70607347595933,134.42029658671052L-170.82957825302128,90.52642140100681A193.33333333333334,193.33333333333334,0,0,0,-165.90682127046645,99.26079001150092Z"><title>Double basses</title></path><path fill="rgb(190, 229, 160)" display="" d="M-255.63339318896,132.6482879146903A288,288,0,0,1,-262.5702304195644,118.32528934009358L-176.12711982365178,79.73089388940015A193.33333333333334,193.33333333333334,0,0,0,-171.75689796602197,88.75441272898658Z"><title>English Horn</title></path><path fill="rgb(190, 229, 160)" display="" d="M-263.38559118598926,116.49905731638749A288,288,0,0,1,-269.41855415045666,101.77250453574112L-180.74325978340502,68.62690303843199A193.33333333333334,193.33333333333334,0,0,0,-176.94248059007668,77.90466186569404Z"><title>Flutes</title></path><path fill="rgb(190, 229, 160)" display="" d="M-270.1188014978983,99.89911449727191A288,288,0,0,1,-275.22454983452593,84.82598168239821L-184.66013918354122,57.257408031563656A193.33333333333334,193.33333333333334,0,0,0,-181.44350713084663,66.75351299996277Z"><title>French Horns</title></path><path fill="rgb(190, 229, 160)" display="" d="M-275.806974642032,82.91268141128653A288,288,0,0,1,-279.9657552023849,67.55128358483111L-187.86260437858238,45.666395236256896A193.33333333333334,193.33333333333334,0,0,0,-185.24256399104735,55.344107760451955Z"><title>Glockenspiel</title></path><path fill="rgb(190, 229, 160)" display="" d="M-280.4281041815214,65.6054752681344A288,288,0,0,1,-283.6238274515261,50.01524269407223L-190.3382656528228,33.898708029263275A193.33333333333334,193.33333333333334,0,0,0,-188.3249533577188,43.72058691956016Z"><title>Harps</title></path><path fill="rgb(190, 229, 160)" display="" d="M-283.9643118639118,48.044454286161084A288,288,0,0,1,-286.18461421106093,32.28570254565058L-192.07754515373222,21.999873306311144A193.33333333333334,193.33333333333334,0,0,0,-190.67875006520853,31.92791962135211Z"><title>Oboes</title></path><path fill="rgb(190, 229, 160)" display="" d="M-286.4019167886494,30.297558644015684A288,288,0,0,1,-287.6382082944936,14.431255286132476L-193.07371394680655,10.015925347390432A193.33333333333334,193.33333333333334,0,0,0,-192.29484773132066,20.01172940467623Z"><title>Piano</title></path><path fill="rgb(190, 229, 160)" display="" d="M-287.7314883358268,12.43344763329813A288,288,0,0,1,-287.9789860287009,-3.479023696568282L-193.3229180485083,-2.0067722809336757A193.33333333333334,193.33333333333334,0,0,0,-193.16699398813978,8.018117694556066Z"><title>Piccolo</title></path><path fill="rgb(190, 229, 160)" display="" d="M-287.9478826514203,-5.47876597090174A288,288,0,0,1,-287.2056290108312,-21.37584301244717L-192.82419333658018,-14.02170609715286A193.33333333333334,193.33333333333334,0,0,0,-193.29181467122763,-4.006514555267151Z"><title>Snare Drum</title></path><path fill="rgb(190, 229, 160)" display="" d="M-287.050262547861,-23.369783293904653A288,288,0,0,1,-285.3211292089487,-39.18996334433583L-191.57946928004677,-25.98239265643958A193.33333333333334,193.33333333333334,0,0,0,-192.66882687360996,-16.015646378610356Z"><title>Tam-tam</title></path><path fill="rgb(190, 229, 160)" display="" d="M-285.04210074295156,-41.17038746532555A288,288,0,0,1,-282.33277738669045,-56.85246532136925L-189.59356147447372,-37.842558386064916A193.33333333333334,193.33333333333334,0,0,0,-191.3004408140496,-27.962816777429317Z"><title>Tambourine</title></path><path fill="rgb(190, 229, 160)" display="" d="M-281.93116642459523,-58.811711405698524A288,288,0,0,1,-278.252134896718,-74.29501615464291L-186.87415301136414,-49.55631860886199A193.33333333333334,193.33333333333334,0,0,0,-189.19195051237853,-39.80180447039421Z"><title>Timpani</title></path><path fill="rgb(190, 229, 160)" display="" d="M-277.7294951933173,-76.2255042598287A288,288,0,0,1,-273.09498895209015,-91.45013400349816L-183.43176475376993,-61.07835506212808A193.33333333333334,193.33333333333334,0,0,0,-186.35151330796342,-51.4868067140478Z"><title>Triangle</title></path><path fill="rgb(190, 229, 160)" display="" d="M-272.4533424988646,-93.344395446092A288,288,0,0,1,-266.88129154860235,-108.25144904965433L-179.27971463311664,-72.36409122517912A193.33333333333334,193.33333333333334,0,0,0,-182.79011830054438,-62.97261650472193Z"><title>Trombones</title></path><path fill="rgb(190, 229, 160)" display="" d="M-266.12312075102864,-110.10215530012766A288,288,0,0,1,-259.63508227439127,-124.63396026914204L-174.43406612471395,-83.36986477724851A193.33333333333334,193.33333333333334,0,0,0,-178.52154383554293,-74.21479747565246Z"><title>Trumpets</title></path><path fill="rgb(190, 229, 160)" display="" d="M-258.76332034799754,-126.43395130454329A288,288,0,0,1,-251.38439530543806,-140.53428690863754L-168.9135661012904,-94.05309651852397A193.33333333333334,193.33333333333334,0,0,0,-173.56230419832016,-85.16985581264976Z"><title>Tubas</title></path><path fill="rgb(190, 229, 160)" display="" d="M-250.40241492776272,-142.2765989133299A288,288,0,0,1,-242.16115094678787,-155.89091369328435L-162.73957230498456,-104.3724551007999A193.33333333333334,193.33333333333334,0,0,0,-167.93158572361506,-95.79540852321637Z"><title>Violas</title></path><path fill="rgb(190, 229, 160)" display="" d="M-241.07275120914562,-157.56880600059577A288,288,0,0,1,-232.00103213909057,-170.64442881734135L-155.9359707183899,-114.28801693043427A193.33333333333334,193.33333333333334,0,0,0,-161.6511725673423,-106.05034740811134Z"><title>Violins 1</title></path><path fill="rgb(190, 229, 160)" display="" d="M-230.81042384862596,-172.25140998789425A288,288,0,0,1,-220.94334640823536,-184.73775379691753L-148.52908315432845,-123.76142062497652A193.33333333333334,193.33333333333334,0,0,0,-154.74536242792533,-115.89499810098718Z"><title>Violins 2</title></path><path fill="rgb(190, 229, 160)" display="" d="M-219.6551357971281,-186.26760673274674A288,288,0,0,1,-209.03087379216947,-198.11636429553747L-140.54756542187033,-132.756015425904A193.33333333333334,193.33333333333334,0,0,0,-147.2408725432212,-125.29127356080578Z"><title>Wagner Tuba</title></path><path fill="rgb(190, 229, 160)" display="" d="M-207.6500446970169,-199.56317029283454A288,288,0,0,1,-196.3097013332419,-210.72850106820715L-132.0222964625754,-141.23700299328655A193.33333333333334,193.33333333333334,0,0,0,-139.16673632671777,-134.2028214232011Z"><title>Xylophone</title></path><path fill="rgb(158, 1, 66)" display="" d="M-194.84159591356484,-212.08666271563402A288,288,0,0,1,-182.82904477639133,-222.52537020787605L-122.98625888586818,-149.1715720338027A193.33333333333334,193.33333333333334,0,0,0,-130.55419104289786,-142.5951646407139Z"><title>Bassoons</title></path><path fill="rgb(158, 1, 66)" display="" d="M-181.27934284685085,-223.78963304186794A288,288,0,0,1,-168.64105816298397,-233.46133191959018L-113.47441136572533,-156.52902524126293A193.33333333333334,193.33333333333334,0,0,0,-121.4365569563277,-150.4358348677946Z"><title>Cellos</title></path><path fill="rgb(158, 1, 66)" display="" d="M-167.0157552192907,-234.6268047528457A288,288,0,0,1,-153.80063205696825,-243.49407709198402L-103.52355339236333,-163.2808980585184A193.33333333333334,193.33333333333334,0,0,0,-111.84910842203205,-157.69449807451844Z"><title>Clarinets</title></path><path fill="rgb(158, 1, 66)" display="" d="M-152.10601608046835,-244.55625093652446A288,288,0,0,1,-138.3651811839406,-252.5847909830188L-93.17218290215597,-169.4010688013065A193.33333333333334,193.33333333333334,0,0,0,-101.82893741586338,-164.3430719030588Z"><title>Double basses</title></path><path fill="rgb(158, 1, 66)" display="" d="M-136.60780831463876,-253.5395564945851A288,288,0,0,1,-122.39442230472699,-260.69830338667754L-82.46034733659819,-174.86585971797172A193.33333333333334,193.33333333333334,0,0,0,-91.41481003285412,-170.35583431287282Z"><title>Flutes</title></path><path fill="rgb(158, 1, 66)" display="" d="M-120.58109147685472,-261.54196676298506A288,288,0,0,1,-105.95014318283671,-267.80322469965967L-71.42948870653498,-179.65412859408707A193.33333333333334,193.33333333333334,0,0,0,-80.64701650872591,-175.7095230942793Z"><title>French Horns</title></path><path fill="rgb(158, 1, 66)" display="" d="M-104.08786982109636,-268.53252197100164A288,288,0,0,1,-89.0959635396085,-273.8720673616584L-60.12228326107214,-183.7473505475744A193.33333333333334,193.33333333333334,0,0,0,-69.56721534479462,-180.3834258654291Z"><title>Oboes</title></path><path fill="rgb(158, 1, 66)" display="" d="M-87.19195241785803,-274.48417701857056A288,288,0,0,1,-71.89708892186792,-278.8813521993915L-48.58247638145915,-187.12968969787434A193.33333333333334,193.33333333333334,0,0,0,-58.21827213932166,-184.35946020448657Z"><title>Timpani</title></path><path fill="rgb(158, 1, 66)" display="" d="M-69.95870628925049,-279.373906108524A288,288,0,0,1,-54.42005843433395,-282.8116992629613L-36.85471333870741,-189.788060431892A193.33333333333334,193.33333333333334,0,0,0,-46.64409374884172,-187.6222436070069Z"><title>Trumpets</title></path><path fill="rgb(158, 1, 66)" display="" d="M-52.45480351669102,-283.1827918289269A288,288,0,0,1,-36.732487312749306,-285.64790280311655L-24.984366569709756,-191.71217802969156A193.33333333333334,193.33333333333334,0,0,0,-34.88945842106447,-190.15915299785755Z"><title>Violas</title></path><path fill="rgb(158, 1, 66)" display="" d="M-34.74796329957269,-285.8960983408685A288,288,0,0,1,-18.902805333668677,-287.37899009934154L-13.017360140096548,-192.8945984540801A193.33333333333334,193.33333333333334,0,0,0,-22.99984255653312,-191.96037356744353Z"><title>Violins 1</title></path><path fill="rgb(158, 1, 66)" display="" d="M-16.90668996283745,-287.50332838856053A288,288,0,0,1,-0.9999920729469368,-287.99826391118063L-0.9999920729472647,-193.33074715014118A193.33333333333334,193.33333333333334,0,0,0,-11.021244769265303,-193.01893674329918Z"><title>Violins 2</title></path></g><g id="labels" transform="translate(402.5,300)" text-anchor="middle"><text transform="rotate(90) translate(48.333333333333336,0) rotate(180)"><tspan x="0" y="4" style="font-family: Arial, sans-serif; font-size: 10px; fill: black; font-weight: normal;"/></text><text transform="rotate(-32.97029702970297) translate(145,0) rotate(0)"><tspan x="0" y="4" style="font-family: Arial, sans-serif; font-size: 10px; fill: black; font-weight: normal;">Modern orchestra</tspan></text><text transform="rotate(70.39603960396039) translate(145,0) rotate(0)"><tspan x="0" y="4" style="font-family: Arial, sans-serif; font-size: 10px; fill: black; font-weight: normal;">Early Romantic orchestra</tspan></text><text transform="rotate(171.980198019802) translate(145,0) rotate(180)"><tspan x="0" y="4" style="font-family: Arial, sans-serif; font-size: 10px; fill: black; font-weight: normal;">Late Romantic orchestra</tspan></text><text transform="rotate(248.61386138613864) translate(145,0) rotate(180)"><tspan x="0" y="4" style="font-family: Arial, sans-serif; font-size: 10px; fill: black; font-weight: normal;">Classical orchestra</tspan></text><text transform="rotate(-88.21782178217822) translate(241.66666666666669,0) rotate(0)"><tspan x="0" y="4" style="font-family: Arial, sans-serif; font-size: 10px; fill: black; font-weight: bold;">Baritone horn</tspan></text><text transform="rotate(-84.65346534653466) translate(241.66666666666669,0) rotate(0)"><tspan x="0" y="4" style="font-family: Arial, sans-serif; font-size: 10px; fill: black; font-weight: bold;">Bass Drum</tspan></text><text transform="rotate(-81.08910891089108) translate(241.66666666666669,0) rotate(0)"><tspan x="0" y="4" style="font-family: Arial, sans-serif; font-size: 10px; fill: black; font-weight: bold;">Bassoons</tspan></text><text transform="rotate(-77.52475247524752) translate(241.66666666666669,0) rotate(0)"><tspan x="0" y="4" style="font-family: Arial, sans-serif; font-size: 10px; fill: black; font-weight: bold;">Celesta</tspan></text><text transform="rotate(-73.96039603960396) translate(241.66666666666669,0) rotate(0)"><tspan x="0" y="4" style="font-family: Arial, sans-serif; font-size: 10px; fill: black; font-weight: bold;">Cellos</tspan></text><text transform="rotate(-70.39603960396039) translate(241.66666666666669,0) rotate(0)"><tspan x="0" y="4" style="font-family: Arial, sans-serif; font-size: 10px; fill: black; font-weight: bold;">Clarinets</tspan></text><text transform="rotate(-66.83168316831683) translate(241.66666666666669,0) rotate(0)"><tspan x="0" y="4" style="font-family: Arial, sans-serif; font-size: 10px; fill: black; font-weight: bold;">Cymbals</tspan></text><text transform="rotate(-63.26732673267327) translate(241.66666666666669,0) rotate(0)"><tspan x="0" y="4" style="font-family: Arial, sans-serif; font-size: 10px; fill: black; font-weight: bold;">Double basses</tspan></text><text transform="rotate(-59.70297029702971) translate(241.66666666666669,0) rotate(0)"><tspan x="0" y="4" style="font-family: Arial, sans-serif; font-size: 10px; fill: black; font-weight: bold;">Flutes</tspan></text><text transform="rotate(-56.13861386138615) translate(241.66666666666669,0) rotate(0)"><tspan x="0" y="4" style="font-family: Arial, sans-serif; font-size: 10px; fill: black; font-weight: bold;">French Horns</tspan></text><text transform="rotate(-52.57425742574257) translate(241.66666666666669,0) rotate(0)"><tspan x="0" y="4" style="font-family: Arial, sans-serif; font-size: 10px; fill: black; font-weight: bold;">Glockenspiel</tspan></text><text transform="rotate(-49.00990099009902) translate(241.66666666666669,0) rotate(0)"><tspan x="0" y="4" style="font-family: Arial, sans-serif; font-size: 10px; fill: black; font-weight: bold;">Harps</tspan></text><text transform="rotate(-45.44554455445545) translate(241.66666666666669,0) rotate(0)"><tspan x="0" y="4" style="font-family: Arial, sans-serif; font-size: 10px; fill: black; font-weight: bold;">Marimba</tspan></text><text transform="rotate(-41.88118811881189) translate(241.66666666666669,0) rotate(0)"><tspan x="0" y="4" style="font-family: Arial, sans-serif; font-size: 10px; fill: black; font-weight: bold;">Oboes</tspan></text><text transform="rotate(-38.316831683168324) translate(241.66666666666669,0) rotate(0)"><tspan x="0" y="4" style="font-family: Arial, sans-serif; font-size: 10px; fill: black; font-weight: bold;">Piano</tspan></text><text transform="rotate(-34.752475247524764) translate(241.66666666666669,0) rotate(0)"><tspan x="0" y="4" style="font-family: Arial, sans-serif; font-size: 10px; fill: black; font-weight: bold;">Pipe organ</tspan></text><text transform="rotate(-31.188118811881196) translate(241.66666666666669,0) rotate(0)"><tspan x="0" y="4" style="font-family: Arial, sans-serif; font-size: 10px; fill: black; font-weight: bold;">Snare Drum</tspan></text><text transform="rotate(-27.623762376237636) translate(241.66666666666669,0) rotate(0)"><tspan x="0" y="4" style="font-family: Arial, sans-serif; font-size: 10px; fill: black; font-weight: bold;">Tam-tam</tspan></text><text transform="rotate(-24.05940594059406) translate(241.66666666666669,0) rotate(0)"><tspan x="0" y="4" style="font-family: Arial, sans-serif; font-size: 10px; fill: black; font-weight: bold;">Tambourine</tspan></text><text transform="rotate(-20.4950495049505) translate(241.66666666666669,0) rotate(0)"><tspan x="0" y="4" style="font-family: Arial, sans-serif; font-size: 10px; fill: black; font-weight: bold;">Tenor drum</tspan></text><text transform="rotate(-16.930693069306912) translate(241.66666666666669,0) rotate(0)"><tspan x="0" y="4" style="font-family: Arial, sans-serif; font-size: 10px; fill: black; font-weight: bold;">Timpani</tspan></text><text transform="rotate(-13.366336633663352) translate(241.66666666666669,0) rotate(0)"><tspan x="0" y="4" style="font-family: Arial, sans-serif; font-size: 10px; fill: black; font-weight: bold;">Triangle</tspan></text><text transform="rotate(-9.801980198019777) translate(241.66666666666669,0) rotate(0)"><tspan x="0" y="4" style="font-family: Arial, sans-serif; font-size: 10px; fill: black; font-weight: bold;">Trombones</tspan></text><text transform="rotate(-6.2376237623762165) translate(241.66666666666669,0) rotate(0)"><tspan x="0" y="4" style="font-family: Arial, sans-serif; font-size: 10px; fill: black; font-weight: bold;">Trumpets</tspan></text><text transform="rotate(-2.673267326732642) translate(241.66666666666669,0) rotate(0)"><tspan x="0" y="4" style="font-family: Arial, sans-serif; font-size: 10px; fill: black; font-weight: bold;">Tubas</tspan></text><text transform="rotate(0.8910891089109327) translate(241.66666666666669,0) rotate(0)"><tspan x="0" y="4" style="font-family: Arial, sans-serif; font-size: 10px; fill: black; font-weight: bold;">Tubular bells</tspan></text><text transform="rotate(4.455445544554493) translate(241.66666666666669,0) rotate(0)"><tspan x="0" y="4" style="font-family: Arial, sans-serif; font-size: 10px; fill: black; font-weight: bold;">Vibraphone</tspan></text><text transform="rotate(8.019801980198068) translate(241.66666666666669,0) rotate(0)"><tspan x="0" y="4" style="font-family: Arial, sans-serif; font-size: 10px; fill: black; font-weight: bold;">Violas</tspan></text><text transform="rotate(11.584158415841657) translate(241.66666666666669,0) rotate(0)"><tspan x="0" y="4" style="font-family: Arial, sans-serif; font-size: 10px; fill: black; font-weight: bold;">Violins 1</tspan></text><text transform="rotate(15.148514851485203) translate(241.66666666666669,0) rotate(0)"><tspan x="0" y="4" style="font-family: Arial, sans-serif; font-size: 10px; fill: black; font-weight: bold;">Violins 2</tspan></text><text transform="rotate(18.71287128712879) translate(241.66666666666669,0) rotate(0)"><tspan x="0" y="4" style="font-family: Arial, sans-serif; font-size: 10px; fill: black; font-weight: bold;">Wood block</tspan></text><text transform="rotate(22.277227722772338) translate(241.66666666666669,0) rotate(0)"><tspan x="0" y="4" style="font-family: Arial, sans-serif; font-size: 10px; fill: black; font-weight: bold;">Xylophone</tspan></text><text transform="rotate(25.841584158415813) translate(241.66666666666669,0) rotate(0)"><tspan x="0" y="4" style="font-family: Arial, sans-serif; font-size: 10px; fill: black; font-weight: bold;">Bass Clarinet</tspan></text><text transform="rotate(29.405940594059402) translate(241.66666666666669,0) rotate(0)"><tspan x="0" y="4" style="font-family: Arial, sans-serif; font-size: 10px; fill: black; font-weight: bold;">Bass Drum</tspan></text><text transform="rotate(32.970297029702934) translate(241.66666666666669,0) rotate(0)"><tspan x="0" y="4" style="font-family: Arial, sans-serif; font-size: 10px; fill: black; font-weight: bold;">Bassoons</tspan></text><text transform="rotate(36.53465346534652) translate(241.66666666666669,0) rotate(0)"><tspan x="0" y="4" style="font-family: Arial, sans-serif; font-size: 10px; fill: black; font-weight: bold;">Cellos</tspan></text><text transform="rotate(40.09900990099004) translate(241.66666666666669,0) rotate(0)"><tspan x="0" y="4" style="font-family: Arial, sans-serif; font-size: 10px; fill: black; font-weight: bold;">Clarinets</tspan></text><text transform="rotate(43.66336633663363) translate(241.66666666666669,0) rotate(0)"><tspan x="0" y="4" style="font-family: Arial, sans-serif; font-size: 10px; fill: black; font-weight: bold;">Contrabassoon</tspan></text><text transform="rotate(47.22772277227716) translate(241.66666666666669,0) rotate(0)"><tspan x="0" y="4" style="font-family: Arial, sans-serif; font-size: 10px; fill: black; font-weight: bold;">Cornet</tspan></text><text transform="rotate(50.79207920792075) translate(241.66666666666669,0) rotate(0)"><tspan x="0" y="4" style="font-family: Arial, sans-serif; font-size: 10px; fill: black; font-weight: bold;">Cymbals</tspan></text><text transform="rotate(54.35643564356428) translate(241.66666666666669,0) rotate(0)"><tspan x="0" y="4" style="font-family: Arial, sans-serif; font-size: 10px; fill: black; font-weight: bold;">Double basses</tspan></text><text transform="rotate(57.92079207920787) translate(241.66666666666669,0) rotate(0)"><tspan x="0" y="4" style="font-family: Arial, sans-serif; font-size: 10px; fill: black; font-weight: bold;">English Horn</tspan></text><text transform="rotate(61.4851485148514) translate(241.66666666666669,0) rotate(0)"><tspan x="0" y="4" style="font-family: Arial, sans-serif; font-size: 10px; fill: black; font-weight: bold;">Flutes</tspan></text><text transform="rotate(65.04950495049496) translate(241.66666666666669,0) rotate(0)"><tspan x="0" y="4" style="font-family: Arial, sans-serif; font-size: 10px; fill: black; font-weight: bold;">French Horns</tspan></text><text transform="rotate(68.6138613861385) translate(241.66666666666669,0) rotate(0)"><tspan x="0" y="4" style="font-family: Arial, sans-serif; font-size: 10px; fill: black; font-weight: bold;">Glockenspiel</tspan></text><text transform="rotate(72.17821782178208) translate(241.66666666666669,0) rotate(0)"><tspan x="0" y="4" style="font-family: Arial, sans-serif; font-size: 10px; fill: black; font-weight: bold;">Harps</tspan></text><text transform="rotate(75.74257425742562) translate(241.66666666666669,0) rotate(0)"><tspan x="0" y="4" style="font-family: Arial, sans-serif; font-size: 10px; fill: black; font-weight: bold;">Oboes</tspan></text><text transform="rotate(79.3069306930692) translate(241.66666666666669,0) rotate(0)"><tspan x="0" y="4" style="font-family: Arial, sans-serif; font-size: 10px; fill: black; font-weight: bold;">Piccolo</tspan></text><text transform="rotate(82.87128712871271) translate(241.66666666666669,0) rotate(0)"><tspan x="0" y="4" style="font-family: Arial, sans-serif; font-size: 10px; fill: black; font-weight: bold;">Snare Drum</tspan></text><text transform="rotate(86.4356435643563) translate(241.66666666666669,0) rotate(0)"><tspan x="0" y="4" style="font-family: Arial, sans-serif; font-size: 10px; fill: black; font-weight: bold;">Tambourine</tspan></text><text transform="rotate(89.99999999999986) translate(241.66666666666669,0) rotate(0)"><tspan x="0" y="4" style="font-family: Arial, sans-serif; font-size: 10px; fill: black; font-weight: bold;">Timpani</tspan></text><text transform="rotate(93.56435643564345) translate(241.66666666666669,0) rotate(180)"><tspan x="0" y="4" style="font-family: Arial, sans-serif; font-size: 10px; fill: black; font-weight: bold;">Triangle</tspan></text><text transform="rotate(97.12871287128695) translate(241.66666666666669,0) rotate(180)"><tspan x="0" y="4" style="font-family: Arial, sans-serif; font-size: 10px; fill: black; font-weight: bold;">Trombones</tspan></text><text transform="rotate(100.69306930693054) translate(241.66666666666669,0) rotate(180)"><tspan x="0" y="4" style="font-family: Arial, sans-serif; font-size: 10px; fill: black; font-weight: bold;">Trumpets</tspan></text><text transform="rotate(104.25742574257407) translate(241.66666666666669,0) rotate(180)"><tspan x="0" y="4" style="font-family: Arial, sans-serif; font-size: 10px; fill: black; font-weight: bold;">Tubas</tspan></text><text transform="rotate(107.82178217821766) translate(241.66666666666669,0) rotate(180)"><tspan x="0" y="4" style="font-family: Arial, sans-serif; font-size: 10px; fill: black; font-weight: bold;">Violas</tspan></text><text transform="rotate(111.38613861386119) translate(241.66666666666669,0) rotate(180)"><tspan x="0" y="4" style="font-family: Arial, sans-serif; font-size: 10px; fill: black; font-weight: bold;">Violins 1</tspan></text><text transform="rotate(114.95049504950478) translate(241.66666666666669,0) rotate(180)"><tspan x="0" y="4" style="font-family: Arial, sans-serif; font-size: 10px; fill: black; font-weight: bold;">Violins 2</tspan></text><text transform="rotate(118.51485148514851) translate(241.66666666666669,0) rotate(180)"><tspan x="0" y="4" style="font-family: Arial, sans-serif; font-size: 10px; fill: black; font-weight: bold;">Bass Clarinet</tspan></text><text transform="rotate(122.07920792079204) translate(241.66666666666669,0) rotate(180)"><tspan x="0" y="4" style="font-family: Arial, sans-serif; font-size: 10px; fill: black; font-weight: bold;">Bass Drum</tspan></text><text transform="rotate(125.64356435643563) translate(241.66666666666669,0) rotate(180)"><tspan x="0" y="4" style="font-family: Arial, sans-serif; font-size: 10px; fill: black; font-weight: bold;">Bassoons</tspan></text><text transform="rotate(129.20792079207914) translate(241.66666666666669,0) rotate(180)"><tspan x="0" y="4" style="font-family: Arial, sans-serif; font-size: 10px; fill: black; font-weight: bold;">Celesta</tspan></text><text transform="rotate(132.77227722772273) translate(241.66666666666669,0) rotate(180)"><tspan x="0" y="4" style="font-family: Arial, sans-serif; font-size: 10px; fill: black; font-weight: bold;">Cellos</tspan></text><text transform="rotate(136.33663366336629) translate(241.66666666666669,0) rotate(180)"><tspan x="0" y="4" style="font-family: Arial, sans-serif; font-size: 10px; fill: black; font-weight: bold;">Chimes</tspan></text><text transform="rotate(139.90099009900987) translate(241.66666666666669,0) rotate(180)"><tspan x="0" y="4" style="font-family: Arial, sans-serif; font-size: 10px; fill: black; font-weight: bold;">Clarinets</tspan></text><text transform="rotate(143.46534653465343) translate(241.66666666666669,0) rotate(180)"><tspan x="0" y="4" style="font-family: Arial, sans-serif; font-size: 10px; fill: black; font-weight: bold;">Contrabassoon</tspan></text><text transform="rotate(147.029702970297) translate(241.66666666666669,0) rotate(180)"><tspan x="0" y="4" style="font-family: Arial, sans-serif; font-size: 10px; fill: black; font-weight: bold;">Cymbals</tspan></text><text transform="rotate(150.59405940594058) translate(241.66666666666669,0) rotate(180)"><tspan x="0" y="4" style="font-family: Arial, sans-serif; font-size: 10px; fill: black; font-weight: bold;">Double basses</tspan></text><text transform="rotate(154.15841584158417) translate(241.66666666666669,0) rotate(180)"><tspan x="0" y="4" style="font-family: Arial, sans-serif; font-size: 10px; fill: black; font-weight: bold;">English Horn</tspan></text><text transform="rotate(157.72277227722776) translate(241.66666666666669,0) rotate(180)"><tspan x="0" y="4" style="font-family: Arial, sans-serif; font-size: 10px; fill: black; font-weight: bold;">Flutes</tspan></text><text transform="rotate(161.28712871287135) translate(241.66666666666669,0) rotate(180)"><tspan x="0" y="4" style="font-family: Arial, sans-serif; font-size: 10px; fill: black; font-weight: bold;">French Horns</tspan></text><text transform="rotate(164.85148514851494) translate(241.66666666666669,0) rotate(180)"><tspan x="0" y="4" style="font-family: Arial, sans-serif; font-size: 10px; fill: black; font-weight: bold;">Glockenspiel</tspan></text><text transform="rotate(168.4158415841585) translate(241.66666666666669,0) rotate(180)"><tspan x="0" y="4" style="font-family: Arial, sans-serif; font-size: 10px; fill: black; font-weight: bold;">Harps</tspan></text><text transform="rotate(171.98019801980212) translate(241.66666666666669,0) rotate(180)"><tspan x="0" y="4" style="font-family: Arial, sans-serif; font-size: 10px; fill: black; font-weight: bold;">Oboes</tspan></text><text transform="rotate(175.54455445544568) translate(241.66666666666669,0) rotate(180)"><tspan x="0" y="4" style="font-family: Arial, sans-serif; font-size: 10px; fill: black; font-weight: bold;">Piano</tspan></text><text transform="rotate(179.10891089108924) translate(241.66666666666669,0) rotate(180)"><tspan x="0" y="4" style="font-family: Arial, sans-serif; font-size: 10px; fill: black; font-weight: bold;">Piccolo</tspan></text><text transform="rotate(182.67326732673286) translate(241.66666666666669,0) rotate(180)"><tspan x="0" y="4" style="font-family: Arial, sans-serif; font-size: 10px; fill: black; font-weight: bold;">Snare Drum</tspan></text><text transform="rotate(186.23762376237642) translate(241.66666666666669,0) rotate(180)"><tspan x="0" y="4" style="font-family: Arial, sans-serif; font-size: 10px; fill: black; font-weight: bold;">Tam-tam</tspan></text><text transform="rotate(189.80198019802003) translate(241.66666666666669,0) rotate(180)"><tspan x="0" y="4" style="font-family: Arial, sans-serif; font-size: 10px; fill: black; font-weight: bold;">Tambourine</tspan></text><text transform="rotate(193.3663366336636) translate(241.66666666666669,0) rotate(180)"><tspan x="0" y="4" style="font-family: Arial, sans-serif; font-size: 10px; fill: black; font-weight: bold;">Timpani</tspan></text><text transform="rotate(196.93069306930715) translate(241.66666666666669,0) rotate(180)"><tspan x="0" y="4" style="font-family: Arial, sans-serif; font-size: 10px; fill: black; font-weight: bold;">Triangle</tspan></text><text transform="rotate(200.49504950495077) translate(241.66666666666669,0) rotate(180)"><tspan x="0" y="4" style="font-family: Arial, sans-serif; font-size: 10px; fill: black; font-weight: bold;">Trombones</tspan></text><text transform="rotate(204.05940594059433) translate(241.66666666666669,0) rotate(180)"><tspan x="0" y="4" style="font-family: Arial, sans-serif; font-size: 10px; fill: black; font-weight: bold;">Trumpets</tspan></text><text transform="rotate(207.6237623762379) translate(241.66666666666669,0) rotate(180)"><tspan x="0" y="4" style="font-family: Arial, sans-serif; font-size: 10px; fill: black; font-weight: bold;">Tubas</tspan></text><text transform="rotate(211.1881188118815) translate(241.66666666666669,0) rotate(180)"><tspan x="0" y="4" style="font-family: Arial, sans-serif; font-size: 10px; fill: black; font-weight: bold;">Violas</tspan></text><text transform="rotate(214.75247524752507) translate(241.66666666666669,0) rotate(180)"><tspan x="0" y="4" style="font-family: Arial, sans-serif; font-size: 10px; fill: black; font-weight: bold;">Violins 1</tspan></text><text transform="rotate(218.3168316831687) translate(241.66666666666669,0) rotate(180)"><tspan x="0" y="4" style="font-family: Arial, sans-serif; font-size: 10px; fill: black; font-weight: bold;">Violins 2</tspan></text><text transform="rotate(221.88118811881225) translate(241.66666666666669,0) rotate(180)"><tspan x="0" y="4" style="font-family: Arial, sans-serif; font-size: 10px; fill: black; font-weight: bold;">Wagner Tuba</tspan></text><text transform="rotate(225.44554455445586) translate(241.66666666666669,0) rotate(180)"><tspan x="0" y="4" style="font-family: Arial, sans-serif; font-size: 10px; fill: black; font-weight: bold;">Xylophone</tspan></text><text transform="rotate(229.00990099009897) translate(241.66666666666669,0) rotate(180)"><tspan x="0" y="4" style="font-family: Arial, sans-serif; font-size: 10px; fill: black; font-weight: bold;">Bassoons</tspan></text><text transform="rotate(232.5742574257426) translate(241.66666666666669,0) rotate(180)"><tspan x="0" y="4" style="font-family: Arial, sans-serif; font-size: 10px; fill: black; font-weight: bold;">Cellos</tspan></text><text transform="rotate(236.1386138613862) translate(241.66666666666669,0) rotate(180)"><tspan x="0" y="4" style="font-family: Arial, sans-serif; font-size: 10px; fill: black; font-weight: bold;">Clarinets</tspan></text><text transform="rotate(239.70297029702976) translate(241.66666666666669,0) rotate(180)"><tspan x="0" y="4" style="font-family: Arial, sans-serif; font-size: 10px; fill: black; font-weight: bold;">Double basses</tspan></text><text transform="rotate(243.26732673267333) translate(241.66666666666669,0) rotate(180)"><tspan x="0" y="4" style="font-family: Arial, sans-serif; font-size: 10px; fill: black; font-weight: bold;">Flutes</tspan></text><text transform="rotate(246.83168316831694) translate(241.66666666666669,0) rotate(180)"><tspan x="0" y="4" style="font-family: Arial, sans-serif; font-size: 10px; fill: black; font-weight: bold;">French Horns</tspan></text><text transform="rotate(250.3960396039605) translate(241.66666666666669,0) rotate(180)"><tspan x="0" y="4" style="font-family: Arial, sans-serif; font-size: 10px; fill: black; font-weight: bold;">Oboes</tspan></text><text transform="rotate(253.96039603960412) translate(241.66666666666669,0) rotate(180)"><tspan x="0" y="4" style="font-family: Arial, sans-serif; font-size: 10px; fill: black; font-weight: bold;">Timpani</tspan></text><text transform="rotate(257.5247524752477) translate(241.66666666666669,0) rotate(180)"><tspan x="0" y="4" style="font-family: Arial, sans-serif; font-size: 10px; fill: black; font-weight: bold;">Trumpets</tspan></text><text transform="rotate(261.0891089108913) translate(241.66666666666669,0) rotate(180)"><tspan x="0" y="4" style="font-family: Arial, sans-serif; font-size: 10px; fill: black; font-weight: bold;">Violas</tspan></text><text transform="rotate(264.6534653465348) translate(241.66666666666669,0) rotate(180)"><tspan x="0" y="4" style="font-family: Arial, sans-serif; font-size: 10px; fill: black; font-weight: bold;">Violins 1</tspan></text><text transform="rotate(268.21782178217836) translate(241.66666666666669,0) rotate(180)"><tspan x="0" y="4" style="font-family: Arial, sans-serif; font-size: 10px; fill: black; font-weight: bold;">Violins 2</tspan></text></g></svg>